<svg xmlns="http://www.w3.org/2000/svg" version="1.1" xmlns:xlink="http://www.w3.org/1999/xlink" width="36" height="39"><svg xmlns="http://www.w3.org/2000/svg" version="1.1" xmlns:xlink="http://www.w3.org/1999/xlink" width="36" height="39"><svg width="36" height="39" viewBox="0 0 36 39" fill="none" xmlns="http://www.w3.org/2000/svg">
<path d="M12.0908 0C13.6463 0 14.9193 0.235074 15.9092 0.706055C16.9225 1.15346 17.818 1.68368 18.5957 2.2959C19.067 2.64909 19.4206 2.69638 19.6562 2.4375C19.9155 2.15489 20.0922 1.50682 20.1865 0.494141H21C20.9529 1.38907 20.9171 2.48498 20.8936 3.78027C20.87 5.07552 20.8584 6.78299 20.8584 8.90234H20.0459C19.9045 7.84267 19.7509 6.95941 19.5859 6.25293C19.421 5.52303 19.1852 4.8989 18.8789 4.38086C18.5961 3.86274 18.1953 3.3675 17.6768 2.89648C17.0405 2.1901 16.2744 1.67246 15.3789 1.34277C14.5069 0.989512 13.5874 0.8125 12.6211 0.8125C11.3956 0.812521 10.3234 1.14241 9.4043 1.80176C8.50868 2.43762 7.7544 3.32074 7.1416 4.45117C6.55238 5.55805 6.10425 6.85323 5.79785 8.33691C5.51504 9.82051 5.37404 11.3983 5.37402 13.0703C5.37402 14.7895 5.52662 16.3913 5.83301 17.875C6.16296 19.3351 6.63431 20.6187 7.24707 21.7256C7.88342 22.8089 8.66188 23.6562 9.58105 24.2686C10.5237 24.8808 11.6076 25.1874 12.833 25.1875C13.7051 25.1875 14.6013 25.0231 15.5205 24.6934C16.4396 24.3636 17.194 23.8568 17.7832 23.1738C18.2097 22.7864 18.5583 22.3579 18.8359 21.8926V16.8926C18.8359 15.9868 18.7626 15.3254 18.6152 14.9092C18.4924 14.4687 18.222 14.1752 17.8047 14.0283C17.4118 13.857 16.8103 13.7589 16 13.7344V13C16.6139 13.0245 17.3998 13.0488 18.3574 13.0732C19.315 13.0977 20.3463 13.1104 21.4512 13.1104C22.4579 13.1104 23.4524 13.0977 24.4346 13.0732C25.4166 13.0488 26.2269 13.0245 26.8652 13V13.7344C26.0305 13.7589 25.3921 13.857 24.9502 14.0283C24.533 14.1752 24.2509 14.4688 24.1035 14.9092C23.9562 15.3254 23.8818 15.9868 23.8818 16.8926V35.4014C23.8818 36.1845 23.9437 36.7841 24.0664 37.2002C24.2137 37.5919 24.4715 37.8493 24.8398 37.9717C25.2082 38.0941 25.7363 38.1553 26.4238 38.1553H28.5234C29.4807 38.1552 30.3154 37.9842 31.0273 37.6416C31.764 37.2989 32.4032 36.7968 32.9434 36.1357C33.4835 35.4748 33.9248 34.6666 34.2686 33.7119C34.6123 32.7327 34.8585 31.6312 35.0059 30.4072H35.8525C35.7789 31.2151 35.7422 32.2681 35.7422 33.5654C35.7422 34.104 35.7547 34.8754 35.7793 35.8789C35.8284 36.8826 35.9018 37.9229 36 39C34.7478 38.951 33.336 38.9268 31.7646 38.9268C30.1932 38.9023 28.7932 38.8896 27.5654 38.8896H25.3184C24.4099 38.8897 23.4153 38.9023 22.335 38.9268C21.2792 38.9268 20.1986 38.9384 19.0938 38.9629C18.0134 38.9629 16.9821 38.9755 16 39V38.2656C16.8103 38.2167 17.4118 38.1186 17.8047 37.9717C18.222 37.8248 18.4924 37.5313 18.6152 37.0908C18.7626 36.6502 18.8359 35.9887 18.8359 35.1074V23.5684C18.7602 23.6063 18.6795 23.6508 18.5957 23.7041C17.7237 24.3163 16.7925 24.8581 15.8027 25.3291C14.8365 25.7764 13.5874 26 12.0557 26C9.6518 26 7.54226 25.494 5.72754 24.4814C3.91272 23.4688 2.49784 22.0082 1.48438 20.1006C0.494531 18.193 0 15.8966 0 13.2119C5.60987e-06 10.5743 0.518633 8.26634 1.55566 6.28809C2.59267 4.30989 4.01827 2.76703 5.83301 1.66016C7.6478 0.553285 9.73395 1.38668e-05 12.0908 0Z" fill="white"></path>
</svg></svg><style>@media (prefers-color-scheme: light) { :root { filter: contrast(1) brightness(0.5); } }
@media (prefers-color-scheme: dark) { :root { filter: none; } }
</style></svg>