<svg width="40" height="40" viewBox="0 0 40 40" fill="none" xmlns="http://www.w3.org/2000/svg">
<path d="M31.25 34.0625C27.875 36.7625 23.9762 37.937 20.0023 38C10.0605 38 2 29.944 2 20.0023C2 10.0605 10.0605 2 20.0023 2C29.944 2 38 10.064 38 20V20.0023C38.0045 26.2715 33.0269 29.7145 26.7576 29.7145C25.5064 29.7145 24.3003 29.5119 23.1751 29.1384C21.4379 28.6028 19.6737 28.5623 17.9545 28.7873C16.9779 28.9179 15.8347 29.3274 15.5917 30.4031C15.3847 31.3077 16.0103 32.2663 16.8024 32.5363C17.5944 32.8064 18.4631 32.5138 19.1561 32.0053C20.9474 30.6956 21.726 28.1933 22.14 25.826C22.5541 23.4587 22.7566 20.9609 23.8592 18.8951C24.1833 18.2875 24.6108 17.707 25.1959 17.4594C25.781 17.2119 26.7756 17.3469 26.7756 18.6611C26.7756 20.2183 25.0204 21.0689 25.0204 21.0689C23.3462 22.0455 20.7178 22.4686 18.7466 22.0005C17.2299 21.6405 15.9562 20.7989 15.0246 19.7322L15.1191 19.8312C14.0075 18.6656 13.2694 16.6088 13.2694 14.264C13.2694 10.6276 15.0471 7.67971 17.2434 7.67971C19.4397 7.67971 21.2174 10.6276 21.2174 14.264" stroke="#DEC5F5" stroke-width="2.25" stroke-linecap="round" stroke-linejoin="round"/>
</svg>
